<svg width="19" height="19" viewBox="0 0 19 19" fill="none" xmlns="http://www.w3.org/2000/svg">
<circle cx="9.5" cy="9.5" r="8.5" stroke="white" stroke-width="2"/>
<path d="M10.6495 10.1799H8.3785L8 4H11L10.6495 10.1799ZM10.5514 13.5428C10.2617 13.8476 9.91589 14 9.51402 14C9.11215 14 8.76168 13.8476 8.46262 13.5428C8.1729 13.2281 8.02804 12.8594 8.02804 12.4366C8.02804 12.0039 8.1729 11.6352 8.46262 11.3304C8.76168 11.0157 9.11215 10.8584 9.51402 10.8584C9.91589 10.8584 10.2617 11.0157 10.5514 11.3304C10.8505 11.6352 11 12.0039 11 12.4366C11 12.8594 10.8505 13.2281 10.5514 13.5428Z" fill="white"/>
</svg>
