<svg width="82" height="17" viewBox="0 0 82 17" fill="none" xmlns="http://www.w3.org/2000/svg">
<path d="M10.051 0.188435C8.91063 0.29312 3.68169 2.50815 1.02909 5.95739C-1.62351 9.40663 1.68955 12.3144 1.68955 12.3144C3.98055 14.4141 6.74802 15.9248 9.75318 16.7163C14.0092 17.8576 15.2779 15.2429 15.6803 14.4C16.4609 12.7644 17.2231 7.94593 15.6865 3.38976C14.1499 -1.16642 10.051 0.188435 10.051 0.188435ZM9.16329 15.3979C7.81648 15.398 6.49987 14.9988 5.37996 14.2507C4.26004 13.5025 3.38714 12.4391 2.87162 11.1949C2.35611 9.95062 2.22114 8.58144 2.4838 7.26049C2.74645 5.93954 3.39492 4.72614 4.34721 3.77374C5.29949 2.82134 6.51282 2.17273 7.83374 1.90992C9.15466 1.64711 10.5239 1.78191 11.7682 2.29728C13.0125 2.81265 14.076 3.68543 14.8243 4.80525C15.5725 5.92508 15.9719 7.24164 15.9719 8.58846C15.972 9.48263 15.7959 10.3681 15.4538 11.1942C15.1116 12.0203 14.6101 12.771 13.9779 13.4033C13.3456 14.0356 12.5951 14.5372 11.769 14.8794C10.9429 15.2217 10.0575 15.3978 9.16329 15.3979Z" fill="#F25100"/>
<path d="M12.6326 4.3599H12.6309C12.3014 4.15911 11.9186 4.06326 11.5334 4.08508H6.56052C6.20787 4.07489 5.85976 4.16665 5.55794 4.34934V4.36962L5.52778 4.36967C5.05101 4.75962 4.64941 5.2333 4.3427 5.76743H5.54117C5.66414 5.60999 5.79779 5.4612 5.94118 5.3221L5.94541 5.32282C6.02646 5.23418 6.12654 5.16506 6.23814 5.12065C6.34974 5.07625 6.46995 5.05772 6.58974 5.06646H11.614C11.8106 5.08007 11.9997 5.14738 12.1606 5.26104C12.9253 5.96716 13.423 6.91538 13.5698 7.94577C13.5417 7.98535 13.505 8.01806 13.4624 8.04142C13.4199 8.06479 13.3726 8.07821 13.3241 8.08069H4.15416C4.00437 8.10584 3.86753 8.18105 3.76601 8.29402C3.66448 8.40699 3.60426 8.55106 3.59519 8.70268V8.73776C3.58286 8.79224 3.57645 8.84791 3.57608 8.90377C3.61916 9.64549 3.81187 10.3708 4.1426 11.0361C4.47333 11.7014 4.93525 12.2929 5.50055 12.775L5.55795 12.7751V12.7934C5.85977 12.9761 6.20787 13.0679 6.56053 13.0577H11.5334C11.9198 13.0801 12.3037 12.9834 12.6334 12.7806L12.6652 12.7807C13.1097 12.3956 13.4932 11.9454 13.8029 11.4454H12.5958C12.4747 11.5886 12.3457 11.7249 12.2095 11.8537C12.1327 11.9322 12.0395 11.9928 11.9365 12.0313C11.8336 12.0697 11.7235 12.0851 11.614 12.0763H6.58974C6.46995 12.085 6.34974 12.0665 6.23814 12.0221C6.12654 11.9777 6.02646 11.9086 5.94542 11.8199C5.93794 11.8204 5.93057 11.822 5.92355 11.8246C5.19449 11.1155 4.726 10.1812 4.59387 9.17277C4.61982 9.14074 4.65207 9.11439 4.68863 9.09535C4.72519 9.07631 4.76527 9.06499 4.80639 9.06209H14.0351C14.2033 9.02041 14.3516 8.92092 14.454 8.781C14.5563 8.64108 14.6062 8.46963 14.595 8.29664L14.6006 8.30053V8.28921L14.5952 8.28648C14.5545 7.53245 14.3593 6.79481 14.0217 6.11935C13.6841 5.44389 13.2112 4.84502 12.6326 4.3599Z" fill="#F25100"/>
<path d="M52.4166 5.038C52.1235 4.66558 51.7295 4.38532 51.2816 4.23064C50.7333 4.06184 50.1603 3.98759 49.587 4.01107H45.8906C44.6633 4.01107 43.7463 4.28932 43.1448 4.8658C42.8288 5.22145 42.5862 5.63603 42.4309 6.08572C42.2756 6.53541 42.2106 7.01135 42.2398 7.4862V9.75603C42.2398 11.9418 43.4961 13.0581 45.9989 13.0581H49.6592C50.3222 13.0715 50.9794 12.9316 51.5794 12.6492C51.9254 12.4936 52.217 12.238 52.4166 11.9153V13.9233C52.4168 14.1859 52.3579 14.4452 52.2442 14.682C52.1305 14.9187 51.965 15.1269 51.7599 15.2909C51.0875 15.6492 50.3297 15.8163 49.569 15.774H46.2335C45.5761 15.7861 44.9266 15.629 44.3474 15.3178C44.1782 15.2049 44.0373 15.0546 43.9355 14.8784C43.8338 14.7022 43.7741 14.505 43.7609 14.302L42.7095 14.3018C42.6911 14.6677 42.7644 15.0324 42.9228 15.3627C43.0812 15.693 43.3197 15.9785 43.6165 16.1932C44.3607 16.6594 45.23 16.8863 46.1071 16.8434H49.6592C50.9948 16.8434 51.9906 16.5759 52.6285 16.0231C52.9123 15.7664 53.1351 15.4494 53.2804 15.0954C53.4257 14.7414 53.4898 14.3593 53.4681 13.9773V4.01107H52.4166V5.038ZM52.4068 9.49048C52.419 9.82999 52.3594 10.1683 52.2321 10.4832C52.1048 10.7982 51.9126 11.0828 51.668 11.3186C51.0758 11.8283 50.3067 12.0844 49.5271 12.0313H46.3834C45.5584 12.093 44.7366 11.8752 44.0504 11.413C43.7857 11.1683 43.5811 10.8657 43.4525 10.5289C43.3239 10.1921 43.2749 9.83014 43.3092 9.47127V7.55878C43.2751 7.21167 43.3198 6.86135 43.4399 6.53392C43.5601 6.20649 43.7525 5.91038 44.003 5.66766C44.4768 5.27083 45.2588 5.08044 46.3834 5.08044H49.5271C50.3185 5.01832 51.1032 5.26614 51.7154 5.7716C51.9496 6.0044 52.1322 6.28388 52.2513 6.59189C52.3705 6.89989 52.4234 7.22951 52.4068 7.55933V9.49048Z" fill="#F25100"/>
<path d="M65.0388 4.04079H61.6097C60.9305 4.02224 60.2555 4.15355 59.6328 4.42537C59.2413 4.59856 58.9213 4.90138 58.7269 5.28284V4.04079H57.7455V13.0584H58.7269V7.57561C58.7235 7.20609 58.7944 6.83965 58.9354 6.49808C59.0764 6.1565 59.2847 5.84675 59.5477 5.58724C60.1189 5.15946 60.8281 4.95818 61.5388 5.02217H65.0708C65.8326 4.9843 66.5831 5.21872 67.188 5.68351C67.4342 5.9215 67.6262 6.20984 67.7507 6.52883C67.8753 6.84782 67.9296 7.18994 67.9098 7.53182V13.0542L68.9613 13.0573V7.75414C69.015 6.80565 68.7076 5.87199 68.101 5.14091C67.4391 4.40845 66.4105 4.04079 65.0388 4.04079Z" fill="#F25100"/>
<path d="M37.2354 4.04079H33.8063C33.1271 4.02224 32.4522 4.15355 31.8295 4.42537C31.4379 4.59856 31.118 4.90138 30.9235 5.28284V4.04079H29.9421V13.0584H30.9235V7.57561C30.9201 7.20609 30.991 6.83965 31.132 6.49808C31.2731 6.1565 31.4813 5.84675 31.7444 5.58724C32.3155 5.15946 33.0247 4.95818 33.7354 5.02217H37.2674C38.0293 4.9843 38.7798 5.21872 39.3846 5.68351C39.6308 5.9215 39.8228 6.20984 39.9474 6.52883C40.0719 6.84782 40.1262 7.18994 40.1064 7.53182V13.0542L41.1579 13.0573V7.75414C41.2116 6.80565 40.9043 5.87199 40.2976 5.14091C39.6357 4.40845 38.6071 4.04079 37.2354 4.04079Z" fill="#F25100"/>
<path d="M56.1415 1.87109H55.0721V2.94046H56.1415V1.87109Z" fill="#F25100"/>
<path d="M56.1415 4.01074H55.0721V13.1003H56.1415V4.01074Z" fill="#F25100"/>
<path d="M28.8728 8.82287V7.20212C28.8703 6.35647 28.5333 5.54617 27.9353 4.9482C27.3373 4.35024 26.527 4.01321 25.6814 4.01074H20.8358C19.9902 4.01322 19.1799 4.35025 18.5819 4.94821C17.984 5.54617 17.6469 6.35647 17.6445 7.20212V9.90894C17.6469 10.7546 17.984 11.5649 18.5819 12.1628C19.1799 12.7608 19.9902 13.0978 20.8358 13.1003H26.0211C26.7444 13.0969 27.4393 12.8189 27.9653 12.3226C28.4914 11.8263 28.8092 11.1487 28.8547 10.4269H27.7854C27.7422 10.8653 27.5378 11.2721 27.2119 11.5684C26.886 11.8647 26.4617 12.0296 26.0211 12.031H20.8358C20.2732 12.0303 19.7339 11.8065 19.3361 11.4087C18.9382 11.0109 18.7145 10.4715 18.7138 9.90894V8.82287H28.8728ZM20.8358 5.0801H25.6814C26.244 5.08074 26.7834 5.30451 27.1812 5.70233C27.579 6.10015 27.8028 6.63952 27.8034 7.20212V7.75351H18.7138V7.20212C18.7145 6.63952 18.9382 6.10015 19.3361 5.70233C19.7339 5.30452 20.2732 5.08074 20.8358 5.0801Z" fill="#F25100"/>
<path d="M81.2715 8.82287V7.20212C81.269 6.35647 80.932 5.54617 80.334 4.9482C79.7361 4.35024 78.9257 4.01321 78.0801 4.01074H73.2346C72.3889 4.01322 71.5786 4.35025 70.9807 4.94821C70.3827 5.54617 70.0457 6.35647 70.0432 7.20212V9.90894C70.0457 10.7546 70.3827 11.5649 70.9807 12.1628C71.5786 12.7608 72.3889 13.0978 73.2346 13.1003H78.4199C79.1431 13.0969 79.838 12.8189 80.364 12.3226C80.8901 11.8263 81.208 11.1487 81.2534 10.4269H80.1841C80.1409 10.8653 79.9366 11.2721 79.6106 11.5684C79.2847 11.8647 78.8604 12.0296 78.4199 12.031H73.2346C72.672 12.0303 72.1326 11.8065 71.7348 11.4087C71.337 11.0109 71.1132 10.4715 71.1125 9.90894V8.82287H81.2715ZM73.2346 5.0801H78.0801C78.6427 5.08074 79.1821 5.30451 79.5799 5.70233C79.9777 6.10015 80.2015 6.63952 80.2021 7.20212V7.75351H71.1125V7.20212C71.1132 6.63952 71.337 6.10015 71.7348 5.70233C72.1326 5.30452 72.672 5.08074 73.2346 5.0801Z" fill="#F25100"/>
</svg>
