<svg width="363" height="308" viewBox="0 0 363 308" fill="none" xmlns="http://www.w3.org/2000/svg">
<path d="M210.017 288.057C208.56 288.057 207.133 287.789 205.774 287.26C197.259 283.947 180.863 276.51 166.725 263.929C148.726 247.913 139.6 228.769 139.6 207.03V152.854C139.6 148.673 141.84 144.772 145.445 142.674C150.79 139.564 155.254 135.086 158.355 129.725C160.446 126.109 164.335 123.862 168.504 123.862H251.496C255.665 123.862 259.553 126.109 261.645 129.725C264.746 135.086 269.21 139.564 274.554 142.674C278.16 144.772 280.4 148.673 280.4 152.854V207.03C280.4 228.819 271.303 247.971 253.362 263.953C239.222 276.549 222.779 283.968 214.236 287.27C212.884 287.792 211.466 288.057 210.017 288.057Z" fill="url(#paint0_linear)"/>
<path d="M292.133 129.748C282.429 129.748 274.533 121.829 274.533 112.094C274.533 108.845 271.907 106.21 268.667 106.21H151.333C148.093 106.21 145.467 108.845 145.467 112.094C145.467 121.829 137.571 129.748 127.867 129.748C124.627 129.748 122 132.382 122 135.632V207.03C122 224.274 126.626 240.309 135.751 254.691C142.969 266.069 152.986 276.392 165.524 285.374C184.392 298.893 206.786 307.066 210 307.066C213.047 307.066 235.335 299.089 254.477 285.375C267.014 276.392 277.031 266.069 284.25 254.691C293.374 240.309 298 224.274 298 207.03V135.632C298 132.382 295.373 129.748 292.133 129.748ZM274.533 207.03C274.533 227.066 266.099 244.737 249.466 259.553C236.017 271.533 220.299 278.621 212.126 281.779C210.765 282.305 209.257 282.304 207.895 281.774C199.747 278.604 184.07 271.498 170.618 259.528C153.929 244.677 145.467 227.014 145.467 207.03V152.855C145.467 150.757 146.58 148.817 148.389 147.765C154.616 144.141 159.817 138.925 163.429 132.679C164.479 130.865 166.412 129.748 168.504 129.748H251.496C253.588 129.748 255.521 130.865 256.571 132.679C260.183 138.925 265.384 144.142 271.611 147.765C273.419 148.818 274.533 150.757 274.533 152.855V207.03Z" fill="url(#paint1_linear)"/>
<path d="M71.0005 242.416C64.3728 229.11 65.4214 215.113 73.3425 211.154C74.681 210.485 76.2109 209.72 77.5348 209.059C84.9906 208.871 94.1775 217.021 99.6852 228.079C105.214 239.178 107.29 250.879 101.977 257.025C100.653 257.686 98.9531 258.536 97.3432 259.341C89.4221 263.3 77.6281 255.722 71.0005 242.416Z" fill="#F8AB07"/>
<ellipse rx="16.0342" ry="26.9164" transform="matrix(-0.894488 0.447092 -0.445838 -0.895114 89.3144 233.262)" fill="#FFE51A"/>
<path d="M347.146 20.5135C355.255 31.8428 356.363 44.9472 349.622 49.7829C348.482 50.6001 347.18 51.5341 346.053 52.3423C339.183 53.6201 329.472 47.4401 322.733 38.0253C315.969 28.5746 312.311 18.0573 316.314 11.5847C317.441 10.7764 318.888 9.73867 320.258 8.75585C326.999 3.92011 339.038 9.1842 347.146 20.5135Z" fill="#F8AB07"/>
<ellipse rx="15.0221" ry="25.2262" transform="matrix(0.812568 -0.582866 0.582007 0.813184 333.371 31.4159)" fill="#FFE51A"/>
<path d="M5.19283 162.631C8.06079 155.655 13.7521 151.389 17.9047 153.102C18.6064 153.391 19.4085 153.722 20.1025 154.009C22.6607 156.802 22.6141 163.038 20.2308 168.835C17.8384 174.654 14.0655 179.351 9.94808 179.366C9.25402 179.08 8.36286 178.712 7.51888 178.364C3.36627 176.65 2.32487 169.607 5.19283 162.631Z" fill="#F8AB07"/>
<ellipse rx="8.13376" ry="13.6567" transform="matrix(-0.924415 -0.381389 0.380247 -0.924885 14.7941 166.592)" fill="#FFE51A"/>
<path d="M341.381 151.223C337.811 159.747 330.805 164.928 325.731 162.796C324.874 162.436 323.894 162.024 323.046 161.667C319.934 158.225 320.041 150.585 323.007 143.502C325.984 136.392 330.644 130.668 335.689 130.683C336.537 131.039 337.626 131.497 338.657 131.93C343.731 134.062 344.95 142.7 341.381 151.223Z" fill="#F8AB07"/>
<ellipse rx="9.96513" ry="16.7316" transform="matrix(0.921908 0.387408 -0.386269 0.922386 329.65 146.294)" fill="#FFE51A"/>
<defs>
<linearGradient id="paint0_linear" x1="210" y1="288.057" x2="210" y2="123.862" gradientUnits="userSpaceOnUse">
<stop stop-color="#C3FFE8"/>
<stop offset="0.9973" stop-color="#F0FFF4"/>
</linearGradient>
<linearGradient id="paint1_linear" x1="210" y1="307.066" x2="210" y2="106.21" gradientUnits="userSpaceOnUse">
<stop stop-color="#00B59C"/>
<stop offset="1" stop-color="#9CFFAC"/>
</linearGradient>
</defs>
</svg>
