<svg width="363" height="308" fill="none" xmlns="http://www.w3.org/2000/svg"><path d="M210.017 288.057c-1.457 0-2.884-.268-4.243-.797-8.515-3.313-24.911-10.75-39.049-23.331-17.999-16.016-27.125-35.16-27.125-56.899v-54.176c0-4.181 2.24-8.082 5.845-10.18a35.66 35.66 0 0012.91-12.949 11.762 11.762 0 0110.149-5.863h82.992c4.169 0 8.057 2.247 10.149 5.863a35.665 35.665 0 0012.909 12.949 11.812 11.812 0 015.846 10.18v54.176c0 21.789-9.097 40.941-27.038 56.923-14.14 12.596-30.583 20.015-39.126 23.317-1.352.522-2.77.787-4.219.787z" fill="url(#paint0_linear)"/><path d="M292.133 129.748c-9.704 0-17.6-7.919-17.6-17.654 0-3.249-2.626-5.884-5.866-5.884H151.333c-3.24 0-5.866 2.635-5.866 5.884 0 9.735-7.896 17.654-17.6 17.654-3.24 0-5.867 2.634-5.867 5.884v71.398c0 17.244 4.626 33.279 13.751 47.661 7.218 11.378 17.235 21.701 29.773 30.683 18.868 13.519 41.262 21.692 44.476 21.692 3.047 0 25.335-7.977 44.477-21.691 12.537-8.983 22.554-19.306 29.773-30.684 9.124-14.382 13.75-30.417 13.75-47.661v-71.398c0-3.25-2.627-5.884-5.867-5.884zm-17.6 77.282c0 20.036-8.434 37.707-25.067 52.523-13.449 11.98-29.167 19.068-37.34 22.226a5.849 5.849 0 01-4.231-.005c-8.148-3.17-23.825-10.276-37.277-22.246-16.689-14.851-25.151-32.514-25.151-52.498v-54.175a5.887 5.887 0 012.922-5.09 41.542 41.542 0 0015.04-15.086 5.865 5.865 0 015.075-2.931h82.992a5.865 5.865 0 015.075 2.931 41.534 41.534 0 0015.04 15.086 5.89 5.89 0 012.922 5.09v54.175z" fill="url(#paint1_linear)"/><path d="M71 242.416c-6.627-13.306-5.579-27.303 2.343-31.262l4.192-2.095c7.456-.188 16.642 7.962 22.15 19.02 5.529 11.099 7.605 22.8 2.292 28.946l-4.634 2.316c-7.92 3.959-19.715-3.619-26.343-16.925z" fill="#F8AB07"/><ellipse rx="16.034" ry="26.916" transform="rotate(153.443 17.133 127.17) skewX(-.08)" fill="#FFE51A"/><path d="M347.146 20.514c8.109 11.329 9.217 24.433 2.476 29.269l-3.569 2.56c-6.87 1.277-16.581-4.903-23.32-14.318-6.764-9.45-10.422-19.968-6.419-26.44l3.944-2.83c6.741-4.835 18.78.43 26.888 11.758z" fill="#F8AB07"/><ellipse rx="15.022" ry="25.226" transform="rotate(-35.652 215.534 -502.642) skewX(-.061)" fill="#FFE51A"/><path d="M5.193 162.631c2.868-6.976 8.56-11.242 12.712-9.529l2.197.907c2.559 2.793 2.512 9.029.129 14.826-2.393 5.819-6.166 10.516-10.283 10.531l-2.43-1.002c-4.152-1.714-5.193-8.757-2.325-15.733z" fill="#F8AB07"/><ellipse rx="8.134" ry="13.657" transform="rotate(-157.58 23.905 81.83) skewX(.071)" fill="#FFE51A"/><path d="M341.381 151.223c-3.57 8.524-10.576 13.705-15.65 11.573l-2.685-1.129c-3.112-3.442-3.005-11.082-.039-18.165 2.977-7.11 7.637-12.834 12.682-12.819l2.968 1.247c5.074 2.132 6.293 10.77 2.724 19.293z" fill="#F8AB07"/><ellipse rx="9.965" ry="16.732" transform="rotate(22.793 -198.052 890.834) skewX(.071)" fill="#FFE51A"/><defs><linearGradient id="paint0_linear" x1="210" y1="288.057" x2="210" y2="123.862" gradientUnits="userSpaceOnUse"><stop stop-color="#C3FFE8"/><stop offset=".997" stop-color="#F0FFF4"/></linearGradient><linearGradient id="paint1_linear" x1="210" y1="307.066" x2="210" y2="106.21" gradientUnits="userSpaceOnUse"><stop stop-color="#00B59C"/><stop offset="1" stop-color="#9CFFAC"/></linearGradient></defs></svg>