<svg width="161" height="61" viewBox="0 0 161 61" fill="none" xmlns="http://www.w3.org/2000/svg">
<path d="M18.7018 0H43.6789L70.8853 60.942H45.4954L18.7018 0Z" fill="#243086"/>
<path d="M28.4862 44.2154L21.5917 30.0049C21.5917 30.0049 1.11468 34.1981 0 60.9418H13.5826C13.5826 60.9418 13.7064 45.4733 28.4862 44.2154Z" fill="#243086"/>
<path d="M88.7615 30.4673V11.8532C88.7615 7.52674 91.2132 4.65918 94.824 4.65918C98.4348 4.65918 100.887 7.52674 100.887 11.8532V30.4673C100.887 30.9703 100.664 31.2219 100.218 31.2219H96.6963C96.2505 31.2219 96.0276 30.9703 96.0276 30.4673V23.6757H93.5758V30.4673C93.5758 30.9703 93.353 31.2219 92.9072 31.2219H89.3856C88.9844 31.2219 88.7615 30.9703 88.7615 30.4673ZM96.0276 18.6448V11.4005C96.0276 10.3943 95.5818 9.79061 94.824 9.79061C94.0662 9.79061 93.6204 10.3943 93.6204 11.4005V18.6448H96.0276Z" fill="black"/>
<path d="M108.732 23.726C108.732 23.2229 108.911 22.921 109.356 22.921H112.878C113.279 22.921 113.502 23.1726 113.547 23.6757C113.591 25.6377 114.081 26.5432 114.973 26.5432C115.731 26.5432 116.132 25.8892 116.132 24.9837C116.132 20.2547 108.955 17.8902 108.955 10.9477C108.955 6.97335 111.318 4.70949 114.706 4.70949C118.316 4.70949 120.59 7.52674 120.724 12.2557C120.724 12.7588 120.545 13.0606 120.099 13.0606H116.622C116.221 13.0606 115.954 12.8091 115.954 12.2557C115.909 10.5452 115.508 9.7403 114.839 9.7403C114.215 9.7403 113.814 10.0925 113.814 10.9477C113.814 15.0227 121.08 17.5381 121.08 24.9837C121.08 29.1593 118.584 31.6747 114.928 31.6747C111.139 31.6747 108.866 28.7065 108.732 23.726Z" fill="black"/>
<path d="M133.74 5.11195C134.186 5.11195 134.409 5.36349 134.409 5.86658V24.9334C134.409 25.9395 134.855 26.5432 135.612 26.5432C136.37 26.5432 136.816 25.9395 136.816 24.9334V5.86658C136.816 5.36349 137.039 5.11195 137.485 5.11195H141.006C141.452 5.11195 141.675 5.36349 141.675 5.86658V24.4806C141.675 28.7568 139.268 31.6243 135.612 31.6243C131.957 31.6243 129.55 28.7568 129.55 24.4806V5.86658C129.55 5.36349 129.773 5.11195 130.219 5.11195H133.74Z" fill="black"/>
<path d="M150.813 30.4673V12.306C150.813 7.97952 153.265 5.11195 156.92 5.11195H159.907C160.353 5.11195 160.576 5.36349 160.576 5.86658V9.38815C160.576 9.89123 160.353 10.1428 159.907 10.1428H157.589C156.386 10.1428 155.717 10.998 155.717 12.5073V15.576H159.283C159.729 15.576 159.952 15.8276 159.952 16.3307V19.8522C159.952 20.3553 159.729 20.6069 159.283 20.6069H155.717V30.4673C155.717 30.9703 155.494 31.2219 155.048 31.2219H151.482C151.036 31.2219 150.813 30.9703 150.813 30.4673Z" fill="black"/>
<path d="M89.029 39.4724C89.029 39.0196 89.2965 38.7178 89.6977 38.7178C90.0989 38.7178 90.3663 39.0196 90.3663 39.4724C90.3663 39.8749 90.0989 40.227 89.6977 40.227C89.2965 40.227 89.029 39.9252 89.029 39.4724ZM89.2965 55.9232V42.5412C89.2965 42.4406 89.3856 42.3903 89.4748 42.3903H89.876C89.9651 42.3903 90.0543 42.4909 90.0543 42.5412V55.9232C90.0543 56.0238 89.9651 56.1244 89.876 56.1244H89.4748C89.341 56.1244 89.2965 56.0238 89.2965 55.9232Z" fill="#7D7D7D"/>
<path d="M98.0782 55.9231V46.5155C98.0782 43.9498 99.2818 42.1387 101.466 42.1387C103.65 42.1387 104.854 43.9498 104.854 46.5155V55.9231C104.854 56.0237 104.765 56.1243 104.676 56.1243H104.274C104.185 56.1243 104.096 56.0237 104.096 55.9231V46.5155C104.096 44.4025 103.205 42.9436 101.466 42.9436C99.683 42.9436 98.7914 44.4025 98.7914 46.5155V55.9231C98.7914 56.0237 98.7469 56.1243 98.6577 56.1243H98.2565C98.1228 56.1243 98.0782 56.0237 98.0782 55.9231Z" fill="#7D7D7D"/>
<path d="M118.628 42.3906H119.074C119.163 42.3906 119.208 42.4912 119.208 42.5919L116.087 55.7726C116.043 56.0241 115.865 56.1751 115.642 56.1751H115.285C115.062 56.1751 114.928 56.0241 114.839 55.7726L111.719 42.5919C111.674 42.4409 111.763 42.3906 111.853 42.3906H112.298C112.388 42.3906 112.477 42.4409 112.477 42.5415L115.508 55.4204L118.539 42.5415C118.495 42.4409 118.539 42.3906 118.628 42.3906Z" fill="#7D7D7D"/>
<path d="M125.805 52.1505V46.365C125.805 43.9502 127.187 42.1895 129.327 42.1895C131.378 42.1895 132.849 44.0005 132.849 46.2644C132.849 48.5283 131.511 50.1884 128.97 50.1884H126.608V52.1505C126.608 54.0622 127.499 55.5211 129.282 55.5211C131.066 55.5211 132.002 54.1628 132.046 52.3014C132.046 52.2008 132.135 52.1505 132.225 52.1505H132.626C132.715 52.1505 132.804 52.2008 132.804 52.3014C132.76 54.6156 131.511 56.3763 129.282 56.3763C126.964 56.326 125.805 54.5149 125.805 52.1505ZM128.926 49.3835C131.066 49.3835 132.046 48.0755 132.046 46.2644C132.046 44.403 130.932 42.9944 129.282 42.9944C127.544 42.9944 126.519 44.403 126.519 46.365V49.3835H128.926Z" fill="#7D7D7D"/>
<path d="M139.936 52.3014C139.936 52.2008 140.026 52.1505 140.115 52.1505H140.516C140.605 52.1505 140.694 52.2008 140.694 52.3014C140.739 54.5149 141.809 55.5211 143.547 55.5211C145.018 55.5211 146.133 54.4646 146.133 52.8045C146.133 48.8804 139.936 50.2891 139.936 45.6607C139.936 43.6484 141.363 42.1895 143.28 42.1895C145.33 42.1895 146.623 43.5981 146.668 45.8619C146.668 45.9626 146.623 46.0632 146.534 46.0632H146.133C146.044 46.0632 145.954 45.9626 145.954 45.8619C145.91 44.1012 144.929 42.9944 143.324 42.9944C141.853 42.9944 140.739 44.0509 140.739 45.6607C140.739 49.5848 146.935 48.1761 146.935 52.8045C146.935 54.8168 145.464 56.326 143.592 56.326C141.408 56.326 140.026 54.8671 139.936 52.3014Z" fill="#7D7D7D"/>
<path d="M158.793 55.5203V55.973C158.793 56.0737 158.704 56.1743 158.614 56.1743H158.302C156.252 56.1743 155.137 54.7153 155.137 51.9484V43.1948H153.488C153.399 43.1948 153.354 43.0941 153.354 42.9935V42.5408C153.354 42.4401 153.399 42.3898 153.488 42.3898H155.137V38.7173C155.137 38.6167 155.182 38.5664 155.271 38.5664H155.717C155.806 38.5664 155.851 38.667 155.851 38.7173V42.3898H158.392C158.481 42.3898 158.57 42.4904 158.57 42.5408V42.9935C158.57 43.0941 158.481 43.1948 158.392 43.1948H155.851V51.9484C155.851 54.2123 156.698 55.3693 158.302 55.3693H158.659C158.748 55.3693 158.793 55.4196 158.793 55.5203Z" fill="#7D7D7D"/>
</svg>
