<svg width="188" height="145" viewBox="0 0 188 145" fill="none" xmlns="http://www.w3.org/2000/svg">
<path d="M6.64102 92.5627L64.1771 109.601L69.9642 98.8349L5.36913 74.8218C3.53522 80.1184 2.75082 88.3323 6.64102 92.5627Z" fill="#C6815A"/>
<path d="M149.724 142.104L93.9707 119.917L96.0796 107.877L162.061 129.075C160.227 134.372 155.397 141.185 149.724 142.104Z" fill="#C6815A"/>
<path d="M62.1831 101.083L101.172 114.583L94.6923 121.402L63.0596 110.449L62.1831 101.083Z" fill="#C9C3A6"/>
<path d="M65.1257 102.102L66.0021 111.468L63.0596 110.449L62.1831 101.083L65.1257 102.102Z" fill="#CA9E0D"/>
<path d="M98.2297 113.564L91.7497 120.383L94.6923 121.402L101.172 114.583L98.2297 113.564Z" fill="#CA9E0D"/>
<rect x="110.504" y="30.9604" width="78" height="79" transform="rotate(17.0279 110.504 30.9604)" fill="url(#paint0_linear)"/>
<rect x="107.636" y="30.082" width="41" height="79" transform="rotate(17.0279 107.636 30.082)" fill="url(#paint1_linear)"/>
<path fill-rule="evenodd" clip-rule="evenodd" d="M144.346 59.1043L129.047 54.4189L123.044 74.0203L122.605 75.4545C126.047 76.5087 128.859 78.9386 129.669 79.7095C129.764 79.7016 129.863 79.6931 129.967 79.6842C131.817 79.5258 135.007 79.2527 137.904 80.1399L138.489 78.2276L144.346 59.1043Z" fill="url(#paint2_linear)"/>
<path d="M120.908 44.7824C121.068 45.1674 121.368 45.4272 121.808 45.5617C122.247 45.6963 122.641 45.649 122.989 45.4198C123.345 45.1929 123.593 44.851 123.733 44.3941C123.864 43.9671 123.844 43.5637 123.674 43.1838C123.514 42.7988 123.214 42.539 122.775 42.4045C122.335 42.2699 121.942 42.3135 121.596 42.5352C121.25 42.7569 121.011 43.085 120.878 43.5195C120.738 43.9764 120.748 44.3973 120.908 44.7824ZM121.419 46.8314C120.509 46.5528 119.877 46.0437 119.522 45.304C119.176 44.5592 119.143 43.7337 119.42 42.8273C119.817 41.5315 120.353 40.6346 121.028 40.1368C121.703 39.639 122.55 39.4763 123.568 39.6488C124.445 39.7863 124.912 39.7614 124.969 39.5741L126.496 40.0415C126.255 40.828 125.331 41.0777 123.724 40.7904C122.514 40.5838 121.705 40.8316 121.296 41.5338C121.94 41.0837 122.666 40.9826 123.476 41.2304C124.254 41.4689 124.801 41.9396 125.117 42.6426C125.441 43.348 125.483 44.0902 125.245 44.8692C124.999 45.6707 124.522 46.266 123.812 46.655C123.111 47.0464 122.313 47.1052 121.419 46.8314Z" fill="#773134"/>
<path d="M129.093 49.0342L127.624 48.5845L127.797 48.0227C127.253 48.3643 126.593 48.4159 125.814 48.1775C125.313 48.0241 124.91 47.7287 124.606 47.2913C124.311 46.8488 124.25 46.3467 124.422 45.7849C124.601 45.2006 124.928 44.8214 125.403 44.6474C125.886 44.4756 126.385 44.4688 126.902 44.627C127.695 44.8702 128.217 45.2717 128.468 45.8317L128.691 45.1014C128.776 44.8242 128.732 44.569 128.559 44.3358C128.386 44.1025 128.114 43.9292 127.744 43.8159C127.135 43.6294 126.527 43.6765 125.918 43.9571L125.655 42.8321C126.493 42.4658 127.393 42.4302 128.357 42.7253C129.073 42.9449 129.61 43.2853 129.966 43.7467C130.322 44.2081 130.389 44.802 130.166 45.5286L129.093 49.0342ZM126.7 47.3918C127.247 47.5594 127.688 47.5225 128.024 47.2811L128.23 46.607C128.087 46.2192 127.743 45.9415 127.195 45.7739C126.895 45.6818 126.621 45.68 126.375 45.7684C126.131 45.8494 125.97 46.0172 125.892 46.2718C125.816 46.519 125.857 46.7445 126.014 46.9482C126.17 47.1519 126.399 47.2998 126.7 47.3918Z" fill="#773134"/>
<path d="M130.746 49.5404L129.278 49.0907L130.94 43.6639L132.408 44.1136L131.792 46.1248L134.104 46.833L134.72 44.8218L136.189 45.2715L134.527 50.6984L133.058 50.2487L133.722 48.0802L131.41 47.3719L130.746 49.5404Z" fill="#773134"/>
<path d="M140.17 52.4267L138.332 51.8637L137.492 49.3206L136.608 49.8118L136.181 51.205L134.713 50.7553L136.375 45.3284L137.843 45.7782L137.103 48.1938L139.959 46.4262L141.763 46.9786L138.801 48.7629L140.17 52.4267Z" fill="#773134"/>
<path d="M144.45 53.7374L142.981 53.2877L143.153 52.7259C142.61 53.0676 141.95 53.1192 141.171 52.8808C140.67 52.7273 140.267 52.4319 139.963 51.9946C139.668 51.5521 139.607 51.0499 139.779 50.4882C139.958 49.9039 140.285 49.5247 140.76 49.3506C141.243 49.1789 141.742 49.1721 142.259 49.3303C143.052 49.5734 143.574 49.975 143.824 50.535L144.048 49.8046C144.133 49.5275 144.089 49.2723 143.916 49.039C143.743 48.8058 143.471 48.6325 143.101 48.5192C142.492 48.3327 141.884 48.3797 141.275 48.6603L141.012 47.5353C141.85 47.1691 142.75 47.1335 143.714 47.4286C144.43 47.6481 144.967 47.9886 145.323 48.45C145.679 48.9113 145.746 49.5053 145.523 50.2319L144.45 53.7374ZM142.057 52.0951C142.604 52.2627 143.045 52.2258 143.381 51.9844L143.587 51.3102C143.444 50.9225 143.1 50.6448 142.552 50.4771C142.252 50.3851 141.978 50.3833 141.732 50.4717C141.488 50.5526 141.327 50.7204 141.249 50.9751C141.173 51.2223 141.214 51.4477 141.371 51.6514C141.527 51.8551 141.756 52.003 142.057 52.0951Z" fill="#773134"/>
<path d="M149.471 55.4227C148.769 55.2078 148.28 54.7548 148.003 54.0636L147.156 56.8276L145.688 56.3779L147.983 48.8836L149.451 49.3333L149.241 50.0187C149.848 49.6065 150.506 49.5089 151.215 49.7261C151.948 49.9504 152.463 50.3869 152.762 51.0355C153.071 51.679 153.09 52.4427 152.819 53.3266C152.548 54.2104 152.104 54.8362 151.485 55.204C150.875 55.574 150.203 55.6469 149.471 55.4227ZM149.397 54.0114C149.821 54.1412 150.205 54.099 150.549 53.8848C150.9 53.6729 151.148 53.331 151.293 52.8591C151.435 52.3947 151.42 51.9763 151.247 51.6039C151.082 51.2339 150.788 50.984 150.364 50.8541C150.125 50.7809 149.868 50.7677 149.592 50.8144C149.317 50.861 149.091 50.9516 148.915 51.0861L148.326 53.0074C148.397 53.2175 148.533 53.419 148.735 53.6121C148.945 53.8074 149.166 53.9406 149.397 54.0114Z" fill="#773134"/>
<path d="M156.74 56.7519C156.033 57.1335 155.233 57.1873 154.339 56.9135C153.444 56.6396 152.811 56.1467 152.439 55.4346C152.077 54.7174 152.019 53.9581 152.264 53.1566C152.51 52.3551 152.982 51.7624 153.681 51.3785C154.388 50.997 155.189 50.9431 156.083 51.217C156.977 51.4908 157.61 51.9837 157.983 52.6958C158.355 53.4079 158.418 54.1646 158.173 54.9661C157.927 55.7676 157.45 56.3629 156.74 56.7519ZM153.824 54.8757C153.987 55.2532 154.288 55.5093 154.727 55.6438C155.167 55.7784 155.56 55.7348 155.906 55.5131C156.262 55.2863 156.509 54.9481 156.646 54.4987C156.782 54.0568 156.764 53.6458 156.594 53.266C156.434 52.8809 156.134 52.6212 155.694 52.4866C155.255 52.352 154.861 52.3994 154.513 52.6286C154.167 52.8503 153.926 53.1821 153.79 53.624C153.653 54.0735 153.664 54.4907 153.824 54.8757Z" fill="#773134"/>
<path d="M159.718 58.5609C158.854 58.2965 158.227 57.8134 157.834 57.1116C157.442 56.4098 157.375 55.6394 157.632 54.8005C157.886 53.969 158.373 53.3724 159.09 53.0105C159.808 52.6487 160.599 52.5999 161.462 52.8643C162.449 53.1665 163.085 53.7178 163.371 54.5182L162.143 55.1007C161.993 54.6285 161.659 54.3134 161.143 54.1552C160.696 54.0183 160.285 54.0522 159.91 54.257C159.545 54.4567 159.291 54.7924 159.146 55.2643C159.002 55.7362 159.024 56.1608 159.212 56.5379C159.407 56.9173 159.729 57.1755 160.176 57.3125C160.677 57.4659 161.13 57.3916 161.534 57.0894L162.229 58.2485C161.541 58.7589 160.704 58.863 159.718 58.5609Z" fill="#773134"/>
<path d="M164.215 59.9384C163.352 59.674 162.724 59.1909 162.332 58.4891C161.94 57.7873 161.873 57.017 162.13 56.178C162.384 55.3466 162.87 54.7499 163.588 54.3881C164.306 54.0262 165.097 53.9775 165.96 54.2419C166.947 54.5441 167.583 55.0954 167.869 55.8957L166.641 56.4782C166.491 56.0061 166.157 55.6909 165.641 55.5328C165.194 55.3959 164.783 55.4298 164.408 55.6346C164.043 55.8342 163.789 56.17 163.644 56.6419C163.5 57.1138 163.521 57.5383 163.709 57.9154C163.905 58.2949 164.227 58.5531 164.674 58.69C165.175 58.8435 165.627 58.7691 166.032 58.467L166.727 59.626C166.039 60.1365 165.202 60.2406 164.215 59.9384Z" fill="#773134"/>
<path d="M167.564 60.8164L166.153 60.3844L167.815 54.9575L169.284 55.4073L168.279 58.6881L171.585 56.1119L173.065 56.5652L171.402 61.9921L169.934 61.5423L170.977 58.1379L167.564 60.8164Z" fill="#773134"/>
<path d="M172.999 62.481L171.588 62.049L173.25 56.6221L174.719 57.0718L173.714 60.3527L177.02 57.7765L178.5 58.2298L176.838 63.6566L175.369 63.2069L176.412 59.8025L172.999 62.481Z" fill="#773134"/>
<rect x="99.9977" y="92.5854" width="27" height="9" transform="rotate(17.0279 99.9977 92.5854)" fill="#A05A5A"/>
<path d="M135.713 112.479C134.332 112.056 133.383 111.31 132.868 110.242L134.239 109.309C134.639 110.096 135.287 110.627 136.182 110.902C136.66 111.048 137.072 111.047 137.42 110.898C137.778 110.744 138.011 110.492 138.118 110.142C138.233 109.767 138.191 109.427 137.992 109.12C137.793 108.813 137.459 108.588 136.99 108.444C136.295 108.231 135.64 108.277 135.025 108.58L133.881 107.875L135.346 103.091L141.098 104.853L140.62 106.414L136.652 105.198L136.028 107.234C136.64 106.911 137.327 106.867 138.088 107.1C138.834 107.328 139.391 107.768 139.759 108.418C140.136 109.071 140.2 109.805 139.95 110.621C139.68 111.504 139.158 112.114 138.387 112.451C137.617 112.78 136.726 112.789 135.713 112.479Z" fill="#A1A0A7"/>
<path d="M144.164 114.371C143.498 114.631 142.784 114.645 142.023 114.412C141.261 114.178 140.673 113.766 140.258 113.175C139.855 112.578 139.633 111.927 139.593 111.222C139.552 110.517 139.646 109.79 139.876 109.041C140.105 108.292 140.434 107.636 140.863 107.075C141.291 106.514 141.838 106.104 142.504 105.843C143.178 105.585 143.896 105.573 144.658 105.806C145.42 106.039 146.004 106.451 146.41 107.039C146.815 107.628 147.039 108.275 147.079 108.979C147.128 109.687 147.038 110.415 146.808 111.164C146.579 111.914 146.246 112.568 145.809 113.126C145.381 113.687 144.833 114.102 144.164 114.371ZM141.478 111.704C141.593 112.286 141.935 112.664 142.505 112.838C143.074 113.012 143.565 112.889 143.977 112.469C144.398 112.052 144.735 111.431 144.987 110.606C145.24 109.782 145.307 109.083 145.19 108.51C145.083 107.931 144.745 107.554 144.176 107.38C143.607 107.205 143.112 107.327 142.691 107.745C142.272 108.154 141.937 108.771 141.684 109.595C141.432 110.419 141.363 111.122 141.478 111.704Z" fill="#A1A0A7"/>
<path d="M150.571 116.333C149.905 116.593 149.191 116.607 148.429 116.374C147.667 116.14 147.079 115.728 146.665 115.137C146.262 114.54 146.04 113.889 145.999 113.184C145.959 112.479 146.053 111.752 146.282 111.003C146.512 110.254 146.841 109.599 147.269 109.038C147.697 108.476 148.244 108.066 148.91 107.805C149.585 107.547 150.303 107.535 151.065 107.768C151.826 108.002 152.41 108.413 152.816 109.001C153.222 109.59 153.445 110.237 153.486 110.941C153.535 111.649 153.444 112.377 153.215 113.126C152.985 113.876 152.652 114.53 152.216 115.088C151.788 115.649 151.239 116.064 150.571 116.333ZM147.885 113.666C148 114.248 148.342 114.626 148.911 114.8C149.48 114.974 149.971 114.851 150.384 114.431C150.805 114.014 151.141 113.393 151.394 112.569C151.646 111.744 151.714 111.045 151.596 110.472C151.49 109.893 151.152 109.516 150.583 109.342C150.013 109.168 149.518 109.289 149.097 109.707C148.679 110.116 148.343 110.733 148.091 111.557C147.838 112.381 147.77 113.084 147.885 113.666Z" fill="#A1A0A7"/>
<path d="M156.977 118.295C156.311 118.555 155.597 118.569 154.836 118.336C154.074 118.102 153.486 117.69 153.071 117.099C152.668 116.502 152.446 115.851 152.406 115.146C152.365 114.442 152.459 113.715 152.689 112.965C152.918 112.216 153.247 111.561 153.676 111C154.104 110.439 154.651 110.028 155.317 109.767C155.991 109.509 156.709 109.497 157.471 109.73C158.233 109.964 158.817 110.375 159.223 110.963C159.628 111.552 159.852 112.199 159.892 112.904C159.941 113.611 159.851 114.339 159.621 115.088C159.392 115.838 159.059 116.492 158.622 117.05C158.194 117.611 157.646 118.026 156.977 118.295ZM154.291 115.628C154.406 116.21 154.748 116.588 155.317 116.762C155.887 116.936 156.378 116.814 156.79 116.393C157.211 115.976 157.548 115.355 157.8 114.531C158.053 113.706 158.12 113.007 158.003 112.434C157.896 111.855 157.558 111.478 156.989 111.304C156.42 111.13 155.925 111.251 155.504 111.669C155.085 112.078 154.75 112.695 154.497 113.519C154.245 114.343 154.176 115.046 154.291 115.628Z" fill="#A1A0A7"/>
<rect x="33.8028" y="1.42188" width="78" height="79" transform="rotate(21.1679 33.8028 1.42188)" fill="url(#paint3_linear)"/>
<rect x="77.6315" y="18.3936" width="41" height="79" transform="rotate(21.1679 77.6315 18.3936)" fill="url(#paint4_linear)"/>
<path fill-rule="evenodd" clip-rule="evenodd" d="M45.3224 24.8088C46.1421 24.1257 46.8047 23.2309 47.2173 22.1654C47.6299 21.0999 47.7427 19.9922 47.5969 18.9353L48.5134 16.5683L46.1464 15.6517C45.4634 14.8321 44.5686 14.1694 43.5031 13.7568C42.4376 13.3442 41.3299 13.2314 40.2729 13.3773L37.9059 12.4607L36.9894 14.8277C36.1697 15.5108 35.5071 16.4056 35.0945 17.4711C34.6819 18.5366 34.5691 19.6443 34.715 20.7012L33.7984 23.0682L36.1654 23.9848C36.8484 24.8044 37.7433 25.4671 38.8087 25.8797C39.8742 26.2923 40.982 26.4051 42.0389 26.2592L44.4059 27.1758L45.3224 24.8088Z" fill="#A05A5A"/>
<path d="M42.5961 89.5425C43.5914 86.5105 46.9713 79.9052 52.528 77.7402C53.3555 80.219 54.2992 86.7358 51.4551 92.9729" stroke="#8DB4C3" stroke-width="2"/>
<path d="M83.2266 20.5601C82.2313 23.5921 78.8514 30.1973 73.2947 32.3623C72.4673 29.8835 71.5235 23.3667 74.3676 17.1296" stroke="#8EB5C4" stroke-width="2"/>
<path d="M52.528 77.7406C52.1406 75.9718 51.1223 72.232 50.1487 71.4233C51.9109 71.0265 55.6375 69.9874 56.4466 69.0057C56.9895 70.8347 58.2616 74.5649 59.0077 74.8538C57.2455 75.2506 53.5757 76.4196 52.9943 77.9211" stroke="#8EB5C4" stroke-width="2"/>
<path d="M73.2947 32.3624C73.6821 34.1312 74.7004 37.871 75.6741 38.6797C73.9119 39.0765 70.1852 40.1156 69.3761 41.0973C68.8333 39.2683 67.5611 35.5381 66.8151 35.2493C68.5772 34.8525 72.247 33.6834 72.8284 32.1819" stroke="#8EB5C4" stroke-width="2"/>
<path d="M56.4466 69.0056C55.6237 60.0535 56.0967 50.524 68.9291 40.9241C71.1508 50.4179 65.4152 63.8451 56.4466 69.0056Z" fill="#DDE5D2" stroke="#D2AEBC" stroke-width="2"/>
<rect x="50.4724" y="79.1206" width="27" height="6" transform="rotate(21.1679 50.4724 79.1206)" fill="#A05A5A"/>
<path d="M16.7398 70.3475C15.3925 69.8258 14.5004 69.0134 14.0636 67.9105L15.4982 67.0792C15.8403 67.8934 16.4481 68.4696 17.3219 68.808C17.7873 68.9882 18.1988 69.0168 18.5563 68.8938C18.9251 68.7658 19.1756 68.5312 19.3076 68.1902C19.4491 67.8247 19.4317 67.4818 19.2553 67.1614C19.0789 66.8409 18.7621 66.5922 18.3048 66.4151C17.627 66.1526 16.9705 66.1506 16.3353 66.4088L15.2453 65.6226L17.0519 60.9573L22.6617 63.1295L22.0721 64.6522L18.2016 63.1534L17.4327 65.1389C18.0661 64.8612 18.7543 64.8662 19.4974 65.154C20.2241 65.4354 20.7479 65.9137 21.0686 66.5888C21.3975 67.2672 21.4079 68.0042 21.0997 68.8001C20.7664 69.6609 20.2026 70.2316 19.4084 70.5124C18.6174 70.7851 17.7278 70.7301 16.7398 70.3475Z" fill="#A1A0A7"/>
<path d="M25.0324 72.8443C24.3494 73.0561 23.6364 73.0181 22.8934 72.7304C22.1503 72.4426 21.5936 71.9889 21.2232 71.3692C20.8641 70.7446 20.6897 70.0794 20.7001 69.3737C20.7104 68.668 20.8571 67.9497 21.1401 67.2189C21.4231 66.488 21.7984 65.8582 22.2661 65.3296C22.7337 64.801 23.309 64.4308 23.992 64.219C24.6831 64.0103 25.4002 64.0499 26.1433 64.3376C26.8863 64.6254 27.439 65.0775 27.8012 65.694C28.1634 66.3105 28.3394 66.9717 28.329 67.6774C28.3268 68.3862 28.1842 69.1061 27.9012 69.837C27.6182 70.5678 27.2388 71.196 26.763 71.7215C26.2954 72.2501 25.7185 72.6244 25.0324 72.8443ZM22.5458 69.9904C22.6185 70.5788 22.9324 70.9805 23.4877 71.1956C24.0429 71.4106 24.5415 71.3235 24.9833 70.9342C25.4333 70.5482 25.8139 69.9532 26.1252 69.1492C26.4365 68.3453 26.5543 67.6532 26.4785 67.0729C26.4141 66.4876 26.1042 66.0875 25.5489 65.8724C24.9937 65.6574 24.4911 65.7429 24.0411 66.129C23.5943 66.5069 23.2152 67.0979 22.9039 67.9018C22.5926 68.7058 22.4732 69.402 22.5458 69.9904Z" fill="#A1A0A7"/>
<path d="M31.2805 75.2637C30.5976 75.4755 29.8845 75.4376 29.1415 75.1498C28.3984 74.8621 27.8417 74.4084 27.4713 73.7887C27.1122 73.164 26.9378 72.4989 26.9482 71.7932C26.9585 71.0875 27.1052 70.3692 27.3882 69.6383C27.6712 68.9074 28.0466 68.2777 28.5142 67.7491C28.9818 67.2204 29.5571 66.8502 30.2401 66.6384C30.9312 66.4298 31.6483 66.4693 32.3914 66.7571C33.1345 67.0448 33.6871 67.497 34.0493 68.1135C34.4116 68.73 34.5875 69.3911 34.5771 70.0968C34.575 70.8057 34.4324 71.5256 34.1493 72.2564C33.8663 72.9873 33.4869 73.6154 33.0111 74.1409C32.5435 74.6696 31.9666 75.0438 31.2805 75.2637ZM28.794 72.4099C28.8666 72.9983 29.1805 73.4 29.7358 73.615C30.2911 73.83 30.7896 73.7429 31.2314 73.3537C31.6814 72.9676 32.062 72.3726 32.3733 71.5687C32.6846 70.7647 32.8024 70.0726 32.7266 69.4923C32.6622 68.907 32.3523 68.5069 31.7971 68.2919C31.2418 68.0769 30.7392 68.1624 30.2892 68.5485C29.8424 68.9264 29.4633 69.5173 29.152 70.3213C28.8407 71.1252 28.7213 71.8214 28.794 72.4099Z" fill="#A1A0A7"/>
<path d="M37.5286 77.6832C36.8457 77.895 36.1327 77.857 35.3896 77.5693C34.6465 77.2815 34.0898 76.8278 33.7194 76.2081C33.3603 75.5835 33.186 74.9183 33.1963 74.2126C33.2067 73.5069 33.3533 72.7886 33.6363 72.0578C33.9194 71.3269 34.2947 70.6972 34.7623 70.1685C35.2299 69.6399 35.8052 69.2697 36.4882 69.0579C37.1793 68.8493 37.8964 68.8888 38.6395 69.1765C39.3826 69.4643 39.9352 69.9164 40.2974 70.5329C40.6597 71.1495 40.8356 71.8106 40.8253 72.5163C40.8231 73.2251 40.6805 73.945 40.3975 74.6759C40.1145 75.4067 39.735 76.0349 39.2593 76.5604C38.7916 77.089 38.2148 77.4633 37.5286 77.6832ZM35.0421 74.8293C35.1147 75.4177 35.4287 75.8195 35.9839 76.0345C36.5392 76.2495 37.0377 76.1624 37.4795 75.7732C37.9295 75.3871 38.3101 74.7921 38.6214 73.9882C38.9328 73.1842 39.0505 72.4921 38.9748 71.9118C38.9103 71.3265 38.6004 70.9264 38.0452 70.7114C37.4899 70.4963 36.9873 70.5819 36.5373 70.9679C36.0905 71.3459 35.7114 71.9368 35.4001 72.7408C35.0888 73.5447 34.9695 74.2409 35.0421 74.8293Z" fill="#A1A0A7"/>
<path d="M52.902 27.4573L52.5291 27.6733L52.6878 28.074C53.3324 29.7018 54.6445 30.8714 56.5403 31.6056C57.9377 32.1467 59.2484 32.2433 60.442 31.8319L60.442 31.8319L60.4457 31.8306C60.8932 31.6724 61.2918 31.4528 61.6413 31.1748C61.7664 31.7195 61.9747 32.2454 62.2652 32.7508L62.2652 32.7508L62.2695 32.7581C62.8265 33.69 63.6618 34.3632 64.7451 34.7827C65.8282 35.2021 66.8951 35.2655 67.9258 34.9459L67.9258 34.9459L67.9303 34.9445C68.6626 34.7098 69.3131 34.3523 69.8778 33.8733C69.9727 34.6077 70.2128 35.31 70.596 35.9767L70.596 35.9768L70.6003 35.9841C71.1574 36.916 71.9926 37.5892 73.0759 38.0086C74.1591 38.4281 75.226 38.4915 76.2566 38.1718L76.2566 38.1719L76.2611 38.1704C76.9935 37.9357 77.6439 37.5783 78.2087 37.0992C78.3035 37.8337 78.5436 38.536 78.9269 39.2027L78.9268 39.2027L78.9312 39.21C79.4882 40.1419 80.3234 40.8151 81.4067 41.2346C82.4899 41.654 83.5568 41.7174 84.5875 41.3978L84.592 41.3964C85.5896 41.0766 86.4354 40.5291 87.1195 39.7565C87.7981 39.0064 88.334 38.1156 88.7307 37.091C89.1274 36.0664 89.3313 35.047 89.3348 34.0355C89.3495 33.0028 89.0904 32.0323 88.5622 31.1332C88.0156 30.2029 87.1842 29.5312 86.101 29.1117C85.0178 28.6923 83.947 28.6274 82.9076 28.9411L82.9076 28.9411L82.904 28.9422C82.1727 29.169 81.5227 29.522 80.9578 29.9998C80.862 29.2662 80.6192 28.5675 80.2314 27.9073C79.6847 26.9769 78.8534 26.3052 77.7702 25.8858C76.687 25.4663 75.6162 25.4014 74.5768 25.7152L74.5768 25.7152L74.5732 25.7163C73.8418 25.9431 73.1918 26.2961 72.627 26.7738C72.5312 26.0402 72.2884 25.3415 71.9005 24.6813C71.3539 23.751 70.5226 23.0793 69.4394 22.6599C68.3561 22.2404 67.2853 22.1755 66.2459 22.4892L66.2459 22.4892L66.2423 22.4903C65.5548 22.7035 64.9392 23.0283 64.3985 23.4634L65.083 21.6959L65.2635 21.2296L64.7973 21.049L57.3176 18.1527L56.8513 17.9721L56.6708 18.4384L54.262 24.6588L54.1226 25.019L54.4358 25.2449L55.889 26.2932L56.1135 26.4552L56.3699 26.3509C57.0913 26.0576 57.8344 26.0554 58.627 26.3623C59.1646 26.5705 59.4751 26.8384 59.6369 27.1322C59.7952 27.4198 59.818 27.7217 59.6784 28.0823C59.5593 28.3897 59.3429 28.6021 58.9796 28.7284C58.6461 28.843 58.2234 28.8317 57.6775 28.6203C56.6305 28.2149 55.9264 27.54 55.5264 26.5879L55.3064 26.0641L54.8148 26.349L52.902 27.4573ZM63.7147 24.1175C63.3426 24.5382 63.0131 25.002 62.7257 25.5076C62.2335 24.6981 61.5115 24.1097 60.5782 23.7483C59.8554 23.4684 59.1488 23.3649 58.4687 23.4514L58.9556 22.1939L63.65 24.0117L63.7684 24.0576C63.7504 24.0774 63.7325 24.0974 63.7147 24.1175ZM67.3866 31.5421L67.3866 31.5421L67.3817 31.5464C67.1448 31.7551 66.9134 31.8656 66.6858 31.9054C66.4578 31.9452 66.1991 31.9201 65.8986 31.8038C65.5983 31.6874 65.3878 31.531 65.2428 31.3454C65.0979 31.16 64.9977 30.9191 64.9585 30.6019C64.8753 29.9279 65.008 29.0865 65.4059 28.0589C65.8041 27.0308 66.2701 26.3267 66.7789 25.8964L66.7815 25.8941C67.0241 25.686 67.2604 25.5754 67.4924 25.536C67.7246 25.4965 67.9855 25.5225 68.2859 25.6388C68.5864 25.7552 68.7945 25.9108 68.9362 26.0938C69.0777 26.2765 69.1743 26.514 69.2089 26.8278L69.2088 26.8278L69.2101 26.8378C69.2963 27.4986 69.1666 28.3329 68.7685 29.361C68.3706 30.3886 67.902 31.0999 67.3866 31.5421ZM75.7174 34.7681L75.7174 34.768L75.7125 34.7724C75.4756 34.9811 75.2443 35.0916 75.0166 35.1313C74.7886 35.1712 74.5299 35.1461 74.2294 35.0297C73.9291 34.9134 73.7187 34.7569 73.5736 34.5713C73.4287 34.3859 73.3285 34.145 73.2893 33.8278C73.2062 33.1539 73.3389 32.3124 73.7367 31.2849C74.1349 30.2567 74.6009 29.5526 75.1097 29.1223L75.1123 29.12C75.3549 28.9119 75.5912 28.8014 75.8232 28.7619C76.0554 28.7224 76.3163 28.7484 76.6167 28.8647C76.9172 28.9811 77.1253 29.1368 77.267 29.3198C77.4085 29.5025 77.5051 29.74 77.5397 30.0538L77.5396 30.0538L77.5409 30.0638C77.6272 30.7245 77.4975 31.5588 77.0993 32.587C76.7014 33.6145 76.2328 34.3259 75.7174 34.7681ZM84.0483 37.994L84.0482 37.994L84.0433 37.9983C83.8064 38.207 83.5751 38.3175 83.3474 38.3573C83.1194 38.3971 82.8607 38.372 82.5603 38.2556C82.2599 38.1393 82.0495 37.9828 81.9045 37.7973C81.7595 37.6118 81.6593 37.371 81.6202 37.0538C81.537 36.3798 81.6697 35.5384 82.0676 34.5108C82.4657 33.4827 82.9317 32.7786 83.4405 32.3483L83.4432 32.346C83.6857 32.1379 83.922 32.0273 84.1541 31.9878C84.3862 31.9483 84.6472 31.9744 84.9475 32.0907C85.248 32.207 85.4561 32.3627 85.5979 32.5457C85.7393 32.7284 85.8359 32.9659 85.8705 33.2797L85.8704 33.2797L85.8717 33.2897C85.958 33.9504 85.8283 34.7848 85.4302 35.8129C85.0323 36.8405 84.5637 37.5518 84.0483 37.994Z" fill="#D89676" stroke="#A05A5A"/>
<rect x="89.6308" y="21.8101" width="41.2601" height="83.8904" transform="rotate(19.0979 89.6308 21.8101)" fill="#FDF6D2"/>
<rect x="89.6308" y="21.8101" width="3.11397" height="83.8904" transform="rotate(19.0979 89.6308 21.8101)" fill="#FCCA00"/>
<rect x="125.677" y="34.291" width="3.11397" height="83.8904" transform="rotate(19.0979 125.677 34.291)" fill="#FCCA00"/>
<path d="M82.2835 79.8332L83.7828 75.5032L80.4961 74.3652L81.8552 70.4398L85.1419 71.5778L86.2348 68.4213L82.9481 67.2833L84.6856 62.2653L87.9722 63.4033L92.2878 50.9392L101.655 54.1825C105.434 55.4911 107.925 57.1996 109.128 59.3078C110.358 61.4255 110.515 63.8063 109.599 66.4502C109.058 68.015 108.192 69.362 107.004 70.4913C105.815 71.6207 104.241 72.3143 102.281 72.5722C100.348 72.8395 97.9572 72.4801 95.1087 71.4938L92.4383 70.5692L91.3454 73.7257L97.6722 75.9163L96.3131 79.8417L89.9863 77.6511L88.4871 81.9811L82.2835 79.8332ZM94.1758 65.5512L96.2299 66.2625C97.9828 66.8694 99.4687 67.0515 100.688 66.8088C101.934 66.5757 102.786 65.7981 103.244 64.4762C104.094 62.0211 102.875 60.2246 99.5886 59.0867L96.7539 58.1052L94.1758 65.5512Z" fill="#917628"/>
<defs>
<linearGradient id="paint0_linear" x1="149.504" y1="30.9604" x2="149.504" y2="109.96" gradientUnits="userSpaceOnUse">
<stop offset="0.375" stop-color="#FCF7F0"/>
<stop offset="0.765625" stop-color="#E6DCD2"/>
</linearGradient>
<linearGradient id="paint1_linear" x1="128.136" y1="30.082" x2="128.136" y2="109.082" gradientUnits="userSpaceOnUse">
<stop offset="0.302083" stop-color="#D89676"/>
<stop offset="0.765625" stop-color="#C9B8BD"/>
</linearGradient>
<linearGradient id="paint2_linear" x1="136.697" y1="56.7616" x2="129.669" y2="79.7095" gradientUnits="userSpaceOnUse">
<stop stop-color="#AF76A2"/>
<stop offset="1" stop-color="#814273"/>
</linearGradient>
<linearGradient id="paint3_linear" x1="72.8028" y1="1.42187" x2="72.8028" y2="80.4219" gradientUnits="userSpaceOnUse">
<stop offset="0.375" stop-color="#FCF7F0"/>
<stop offset="0.765625" stop-color="#E6DCD2"/>
</linearGradient>
<linearGradient id="paint4_linear" x1="98.1315" y1="18.3936" x2="98.1315" y2="97.3936" gradientUnits="userSpaceOnUse">
<stop offset="0.302083" stop-color="#D89676"/>
<stop offset="0.765625" stop-color="#C9B8BD"/>
</linearGradient>
</defs>
</svg>
