<svg width="136" height="136" viewBox="0 0 136 136" fill="none" xmlns="http://www.w3.org/2000/svg">
<path fill-rule="evenodd" clip-rule="evenodd" d="M34 28C22.9543 28 14 36.9543 14 48V100.208C14 111.253 22.9543 120.208 34 120.208H47.8774V135.745L74.4857 120.208H102C113.046 120.208 122 111.253 122 100.208V48C122 36.9543 113.046 28 102 28H34Z" fill="url(#paint0_linear)"/>
<circle cx="40" cy="64" r="10" transform="rotate(-180 40 64)" fill="url(#paint1_linear)" stroke="#0F4F5A" stroke-width="2"/>
<circle cx="40" cy="64" r="4" fill="#0F4F5A"/>
<circle r="10" transform="matrix(1 0 0 -1 96 64)" fill="url(#paint2_linear)" stroke="#0F4F5A" stroke-width="2"/>
<path fill-rule="evenodd" clip-rule="evenodd" d="M122 93C129.732 93 136 84.9411 136 75C136 65.0589 129.732 57 122 57V93Z" fill="url(#paint3_linear)"/>
<path fill-rule="evenodd" clip-rule="evenodd" d="M14 93C6.26801 93 0 84.9411 0 75C0 65.0589 6.26801 57 14 57V93Z" fill="url(#paint4_linear)"/>
<rect x="41" y="87" width="54" height="13" rx="6.5" fill="url(#paint5_linear)" stroke="#0F4F5A" stroke-width="2"/>
<path d="M59 87V101" stroke="#0F4F5A" stroke-width="2"/>
<path d="M77 87V101" stroke="#0F4F5A" stroke-width="2"/>
<circle cx="96" cy="64" r="4" fill="#0F4F5A"/>
<rect x="64" y="17" width="8" height="11" fill="#0F4F5A"/>
<circle cx="68" cy="11" r="11" fill="url(#paint6_linear)"/>
<defs>
<linearGradient id="paint0_linear" x1="68" y1="28" x2="68" y2="135.745" gradientUnits="userSpaceOnUse">
<stop stop-color="#DBF3F4"/>
<stop offset="1" stop-color="#247E8D"/>
</linearGradient>
<linearGradient id="paint1_linear" x1="40" y1="53" x2="40" y2="75" gradientUnits="userSpaceOnUse">
<stop stop-color="#B4B4B4"/>
<stop offset="0.536458" stop-color="#DFDFDF"/>
</linearGradient>
<linearGradient id="paint2_linear" x1="11" y1="0" x2="11" y2="22" gradientUnits="userSpaceOnUse">
<stop stop-color="#B4B4B4"/>
<stop offset="0.536458" stop-color="#DFDFDF"/>
</linearGradient>
<linearGradient id="paint3_linear" x1="129" y1="57" x2="129" y2="93" gradientUnits="userSpaceOnUse">
<stop offset="0.427083" stop-color="#FE1810"/>
<stop offset="1" stop-color="#731616"/>
</linearGradient>
<linearGradient id="paint4_linear" x1="7" y1="57" x2="7" y2="93" gradientUnits="userSpaceOnUse">
<stop offset="0.427083" stop-color="#FE1810"/>
<stop offset="1" stop-color="#731616"/>
</linearGradient>
<linearGradient id="paint5_linear" x1="68" y1="86" x2="68" y2="101" gradientUnits="userSpaceOnUse">
<stop offset="0.104167" stop-color="#B4B4B4"/>
<stop offset="0.536458" stop-color="#DFDFDF"/>
</linearGradient>
<linearGradient id="paint6_linear" x1="68" y1="0" x2="68" y2="22" gradientUnits="userSpaceOnUse">
<stop stop-color="#FFF576"/>
<stop offset="1" stop-color="#FC7800"/>
</linearGradient>
</defs>
</svg>
