<?xml version="1.0" encoding="utf-8"?><svg xmlns="http://www.w3.org/2000/svg" xmlns:xlink="http://www.w3.org/1999/xlink"><symbol viewBox="0 0 512 512" id="facebook" xmlns="http://www.w3.org/2000/svg"><path d="M288 192v-38.1c0-17.2 3.8-25.9 30.5-25.9H352V64h-55.9c-68.5 0-91.1 31.4-91.1 85.3V192h-45v64h45v192h83V256h56.4l7.6-64h-64z"/></symbol><symbol viewBox="0 0 508.52 508.52" id="flickr-" xmlns="http://www.w3.org/2000/svg"><path d="M413.172 0H95.347C42.684 0 0 42.684 0 95.347v317.825c0 52.664 42.684 95.347 95.347 95.347h317.825c52.664 0 95.347-42.684 95.347-95.347V95.347C508.52 42.684 465.836 0 413.172 0zm-252.48 317.952c-35.628 0-64.487-28.858-64.487-64.487s28.858-64.487 64.487-64.487 64.487 28.858 64.487 64.487-28.859 64.487-64.487 64.487zm187.803 0c-35.628 0-64.487-28.858-64.487-64.487s28.858-64.487 64.487-64.487 64.487 28.858 64.487 64.487-28.859 64.487-64.487 64.487z" fill="withe"/></symbol><symbol viewBox="0 0 30 30" id="icons8" xmlns="http://www.w3.org/2000/svg"><path style="line-height:normal;text-indent:0;text-align:start;text-decoration-line:none;text-decoration-style:solid;text-decoration-color:#000;text-transform:none;block-progression:tb;isolation:auto;mix-blend-mode:normal" d="M23 3a4 4 0 0 0-4 4 4 4 0 0 0 .094.836l-9.082 4.541A4 4 0 0 0 7 11a4 4 0 0 0-4 4 4 4 0 0 0 4 4 4 4 0 0 0 3.014-1.375l9.076 4.54A4 4 0 0 0 19 23a4 4 0 0 0 4 4 4 4 0 0 0 4-4 4 4 0 0 0-4-4 4 4 0 0 0-3.014 1.375l-9.076-4.54A4 4 0 0 0 11 15a4 4 0 0 0-.094-.834l9.082-4.541A4 4 0 0 0 23 11a4 4 0 0 0 4-4 4 4 0 0 0-4-4z" font-weight="400" font-family="sans-serif" overflow="visible"/></symbol><symbol viewBox="0 0 56.7 56.7" id="instagram" xmlns="http://www.w3.org/2000/svg"><path d="M28.2 16.7c-7 0-12.8 5.7-12.8 12.8s5.7 12.8 12.8 12.8S41 36.5 41 29.5s-5.8-12.8-12.8-12.8zm0 21c-4.5 0-8.2-3.7-8.2-8.2s3.7-8.2 8.2-8.2 8.2 3.7 8.2 8.2-3.7 8.2-8.2 8.2z"/><circle cx="41.5" cy="16.4" r="2.9"/><path d="M49 8.9c-2.6-2.7-6.3-4.1-10.5-4.1H17.9c-8.7 0-14.5 5.8-14.5 14.5v20.5c0 4.3 1.4 8 4.2 10.7 2.7 2.6 6.3 3.9 10.4 3.9h20.4c4.3 0 7.9-1.4 10.5-3.9 2.7-2.6 4.1-6.3 4.1-10.6V19.3c0-4.2-1.4-7.8-4-10.4zm-.4 31c0 3.1-1.1 5.6-2.9 7.3s-4.3 2.6-7.3 2.6H18c-3 0-5.5-.9-7.3-2.6C8.9 45.4 8 42.9 8 39.8V19.3c0-3 .9-5.5 2.7-7.3 1.7-1.7 4.3-2.6 7.3-2.6h20.6c3 0 5.5.9 7.3 2.7 1.7 1.8 2.7 4.3 2.7 7.2v20.6z"/></symbol><symbol viewBox="0 0 26 26" id="scroll-down" xmlns="http://www.w3.org/2000/svg"><path d="M.046 2.582L2.13.498l10.837 10.836L23.803.498l2.084 2.084-12.92 12.92z"/><path d="M.046 13.582l2.084-2.084 10.837 10.836 10.836-10.836 2.084 2.084-12.92 12.92z"/></symbol><symbol viewBox="0 0 512 512" id="twitter" xmlns="http://www.w3.org/2000/svg"><path d="M492 109.5c-17.4 7.7-36 12.9-55.6 15.3 20-12 35.4-31 42.6-53.6-18.7 11.1-39.4 19.2-61.5 23.5C399.8 75.8 374.6 64 346.8 64c-53.5 0-96.8 43.4-96.8 96.9 0 7.6.8 15 2.5 22.1-80.5-4-151.9-42.6-199.6-101.3-8.3 14.3-13.1 31-13.1 48.7 0 33.6 17.1 63.3 43.1 80.7C67 210.7 52 206.3 39 199v1.2c0 47 33.4 86.1 77.7 95-8.1 2.2-16.7 3.4-25.5 3.4-6.2 0-12.3-.6-18.2-1.8 12.3 38.5 48.1 66.5 90.5 67.3-33.1 26-74.9 41.5-120.3 41.5-7.8 0-15.5-.5-23.1-1.4C62.9 432 113.8 448 168.4 448 346.6 448 444 300.3 444 172.2c0-4.2-.1-8.4-.3-12.5 18.9-13.7 35.3-30.8 48.3-50.2z"/></symbol></svg>